<?xml version="1.0" encoding="iso-8859-1"?>
<!-- Uploaded to: SVG Repo, www.svgrepo.com, Generator: SVG Repo Mixer Tools -->
<svg fill="#000000" height="800px" width="800px" version="1.1" id="Layer_1" xmlns="http://www.w3.org/2000/svg" xmlns:xlink="http://www.w3.org/1999/xlink" 
	 viewBox="0 0 512.001 512.001" xml:space="preserve">
<g>
	<g>
		<g>
			<path d="M277.457,237.694c4.413,0,7.989-3.577,7.989-7.989v-28.425c0-4.412-3.576-7.989-7.989-7.989
				c-4.412,0-7.989,3.577-7.989,7.989v28.425C269.469,234.117,273.045,237.694,277.457,237.694z"/>
			<path d="M498.032,310.377V263.7c0-27.588-22.444-50.033-50.033-50.033h-76.226v-67.428c0-16.152-13.141-29.293-29.293-29.293
				H42.803c-16.151,0-29.293,13.14-29.293,29.293v164.198C5.906,311.393,0,317.887,0,325.747v19.468
				c0,8.516,6.929,15.445,15.445,15.445H40.29c7.005,0,12.927-4.692,14.81-11.096h13.642c3.868,25.713,26.106,45.49,52.879,45.49
				c26.773,0,49.011-19.777,52.878-45.49h61.209c0.004,0,0.007,0,0.011,0h58.827c0.003,0,0.006,0,0.011,0h26.965
				c3.868,25.713,26.107,45.49,52.879,45.49c26.773,0,49.011-19.777,52.879-45.49h32.849c1.883,6.404,7.806,11.096,14.81,11.096
				h21.618c8.516,0,15.445-6.929,15.445-15.445v-19.468C512,317.729,505.857,311.122,498.032,310.377z M29.489,146.238
				c0-7.342,5.972-13.315,13.315-13.315h299.679c7.341,0,13.315,5.972,13.315,13.315v2.009H29.489V146.238z M39.757,344.683H15.978
				V326.28h23.779V344.683z M121.621,379.077c-20.677,0-37.5-16.822-37.5-37.501c0-20.678,16.822-37.501,37.5-37.501
				s37.5,16.822,37.5,37.501C159.12,362.254,142.298,379.077,121.621,379.077z M291.882,333.587h-53.501V183.892h53.501V333.587z
				 M374.398,379.077c-20.678,0-37.501-16.822-37.501-37.501c0-20.678,16.822-37.501,37.501-37.501
				c20.677,0,37.5,16.822,37.5,37.501C411.898,362.254,395.076,379.077,374.398,379.077z M459.493,333.587h-0.001h-32.214
				c-3.868-25.713-26.106-45.49-52.879-45.49c-26.773,0-49.012,19.777-52.879,45.49h-13.66v-53.23h55.926
				c4.412,0,7.989-3.577,7.989-7.989s-3.577-7.989-7.989-7.989H307.86v-7.814h55.926c4.412,0,7.989-3.577,7.989-7.989
				s-3.577-7.989-7.989-7.989H307.86v-59.357c0-7.342-5.972-13.315-13.315-13.315h-58.827c-7.342,0-13.315,5.972-13.315,13.315
				v59.357H47.746c-4.412,0-7.989,3.577-7.989,7.989s3.577,7.989,7.989,7.989h174.657v7.814H47.746
				c-4.412,0-7.989,3.577-7.989,7.989s3.577,7.989,7.989,7.989h174.657v53.23h-47.905c-3.868-25.713-26.106-45.49-52.878-45.49
				c-26.773,0-49.011,19.777-52.879,45.49H55.735v-7.84c0-8.516-6.929-15.445-15.445-15.445H29.489V164.224h326.309v3.69h-28.754
				c-7.342,0-13.315,5.972-13.315,13.315v35.101c0,7.342,5.973,13.315,13.315,13.315h120.956c18.778,0,34.055,15.277,34.055,34.055
				v20.714H449.17c-6.454,0-11.705,5.25-11.705,11.704v18.456c0,6.454,5.251,11.704,11.705,11.704h10.323V333.587z M355.796,183.892
				v29.775h-26.09v-29.775H355.796z M453.441,310.302v-9.91h28.612v9.91H453.441z M496.022,344.683h-20.553V326.28h20.553V344.683z"
				/>
			<path d="M121.621,312.673c-15.936,0-28.902,12.965-28.902,28.903c0,15.937,12.965,28.904,28.902,28.904
				c15.937,0,28.903-12.966,28.903-28.904C150.522,325.639,137.558,312.673,121.621,312.673z M121.621,354.502
				c-7.127,0-12.924-5.799-12.924-12.926c0-7.127,5.797-12.925,12.924-12.925c7.126,0,12.925,5.798,12.925,12.925
				C134.546,348.703,128.747,354.502,121.621,354.502z"/>
			<path d="M252.804,237.694c4.413,0,7.989-3.577,7.989-7.989v-28.425c0-4.412-3.576-7.989-7.989-7.989
				c-4.413,0-7.989,3.577-7.989,7.989v28.425C244.816,234.117,248.391,237.694,252.804,237.694z"/>
			<path d="M203.219,167.915h-58.825c-7.342,0-13.315,5.972-13.315,13.315v35.101c0,7.342,5.972,13.315,13.315,13.315h58.825
				c7.342,0,13.315-5.972,13.315-13.315v-35.101C216.534,173.887,210.561,167.915,203.219,167.915z M200.556,213.666h-53.499
				v-29.775h53.499V213.666z"/>
			<path d="M277.457,297.232c4.413,0,7.989-3.577,7.989-7.989v-28.426c0-4.412-3.576-7.989-7.989-7.989
				c-4.412,0-7.989,3.577-7.989,7.989v28.426C269.469,293.656,273.045,297.232,277.457,297.232z"/>
			<path d="M374.398,312.673c-15.937,0-28.903,12.965-28.903,28.903c0,15.937,12.965,28.904,28.903,28.904
				c15.936,0,28.902-12.966,28.902-28.904C403.3,325.639,390.335,312.673,374.398,312.673z M374.398,354.502
				c-7.126,0-12.925-5.799-12.925-12.926c0-7.127,5.798-12.925,12.925-12.925c7.126,0,12.924,5.798,12.924,12.925
				C387.322,348.703,381.526,354.502,374.398,354.502z"/>
			<path d="M252.804,297.232c4.413,0,7.989-3.577,7.989-7.989v-28.426c0-4.412-3.576-7.989-7.989-7.989
				c-4.413,0-7.989,3.577-7.989,7.989v28.426C244.816,293.656,248.391,297.232,252.804,297.232z"/>
			<path d="M111.895,167.915H53.072c-7.341,0-13.315,5.972-13.315,13.315v35.101c0,7.342,5.974,13.315,13.315,13.315h58.824
				c7.342,0,13.315-5.972,13.315-13.315v-35.101C125.21,173.887,119.237,167.915,111.895,167.915z M109.233,213.666H55.735v-29.775
				h53.498V213.666z"/>
		</g>
	</g>
</g>
</svg>